<svg width="15" height="15" viewBox="0 0 15 15" fill="none" xmlns="http://www.w3.org/2000/svg">
<path d="M3.75002 6.75003V8.25003H11.25V6.75003H3.75002ZM7.50003 0C3.36001 0 0 3.36001 0 7.50003C0 11.64 3.36001 15.0001 7.50003 15.0001C11.64 15.0001 15.0001 11.64 15.0001 7.50003C15.0001 3.36001 11.64 0 7.50003 0ZM7.50003 13.5001C4.19252 13.5001 1.50001 10.8075 1.50001 7.50003C1.50001 4.19252 4.19252 1.50001 7.50003 1.50001C10.8075 1.50001 13.5001 4.19252 13.5001 7.50003C13.5001 10.8075 10.8075 13.5001 7.50003 13.5001Z" fill="#4D4D4D"/>
</svg>
